<?xml version="1.0" standalone="no"?><!DOCTYPE svg PUBLIC "-//W3C//DTD SVG 1.1//EN" "http://www.w3.org/Graphics/SVG/1.1/DTD/svg11.dtd"><svg xmlns:xlink="http://www.w3.org/1999/xlink" xmlns="http://www.w3.org/2000/svg" version="1.1" width="200" height="200" viewBox="0 0 200 200"><g class="transform-group"><g transform="scale(0.1953125, 0.1953125)"><path d="M0 810.656c0 47.136 38.176 85.344 85.344 85.344l853.344 0c47.136 0 85.344-38.176 85.344-85.344l0-576c0-47.136-38.176-85.344-85.344-85.344l-853.344 0c-47.136 0-85.344 38.176-85.344 85.344l0 576zM314.016 523.296l-195.2-196.48c-16.192-16.224-16.192-42.464 0-58.656 16.224-16.224 42.464-16.224 58.656 0l311.456 311.872c12.576 12.384 33.312 12.384 45.664 0l311.872-311.872c16.224-16.224 42.464-16.224 58.656 0s16.224 42.464 0 58.656l-195.424 196.48 195.424 195.168c16.224 16.224 16.224 42.464 0 58.656s-42.464 16.224-58.656 0l-195.2-194.976c0 0-60.992 62.08-72.096 73.184-17.312 16.864-41.184 27.328-67.232 27.328-26.464 0-50.336-10.656-67.616-27.968-11.296-11.104-71.904-72.512-71.904-72.512l-195.008 194.976c-16.192 16.224-42.432 16.224-58.656 0-16.192-16.224-16.192-42.464 0-58.656l195.232-195.2z" fill="#272636"></path></g></g></svg>
